<?xml version="1.0" encoding="utf-8"?>
<!-- Generator: Adobe Illustrator 24.3.0, SVG Export Plug-In . SVG Version: 6.00 Build 0)  -->
<svg version="1.1" xmlns="http://www.w3.org/2000/svg" xmlns:xlink="http://www.w3.org/1999/xlink" x="0px" y="0px"
	 viewBox="0 0 172.5 110.2" style="enable-background:new 0 0 172.5 110.2;" xml:space="preserve">
<style type="text/css">
	.st0{fill:none;}
	.st1{fill:#E8594F;}
	.st2{fill:#ED866B;}
	.st3{fill:#EA6D59;}
	.st4{fill:#F0997F;}
	.st5{fill:#231815;}
	.st6{fill:#CB9B0C;}
	.st7{fill:#DDBC69;}
	.st8{fill:#EAD6A5;}
	.st9{fill:#E2DDC3;}
	.st10{fill:#FBF8EA;}
	.st11{fill:#FFFFFF;}
	.st12{fill:#C69E50;}
	.st13{fill:#F8C86A;}
	.st14{fill:url(#SVGID_1_);}
	.st15{fill:url(#SVGID_2_);}
	.st16{fill:none;stroke:#000000;stroke-width:0.5;}
	.st17{font-family:'FranklinGothic-MediumItalic';}
	.st18{font-size:35px;}
	.st19{letter-spacing:-1.1;}
</style>
<symbol  id="ガーベラ" viewBox="-23.3 -23.2 46.5 46.3">
	<rect x="-23" y="-23.1" class="st0" width="46.1" height="46.2"/>
	<g>
		<path class="st1" d="M-15.7,6.5c-4.5,1.1-5.5,0-5.5,0c0.6-1,1.6-1.8,2.7-2.4c2.4-0.1,5.2-0.5,7.1-0.7C-12.9,4.3-14.4,5.5-15.7,6.5
			z"/>
		<path class="st1" d="M23.1,1.2c0,0-2.6,0.5-5.3,0.6c-1-0.8-4.7-1.5-7.6-1.9c2.5,0,5.5-1.1,7.3-1.9C19.6-1.4,24.2,0.1,23.1,1.2z"/>
		<path class="st2" d="M7-0.6c0-0.1,0-0.2,0-0.3L7.2-1c0.3,0.2,0.7,0.4,1,0.6c-0.3,0-0.6-0.1-0.9-0.1L7-0.6z"/>
		<path class="st1" d="M17.8,2.1C19,2.3,21.2,2.9,19.3,4c0,0-2.7,1.5-5.3,1.3C12.2,4,10.5,3,10.3,2.9C13.4,3,17,2.2,17.8,2.1z"/>
		<path class="st1" d="M8,6.4L7.2,5.6c3.1,2,7.8,3.7,10,4.4c0.8,1,2.6,3.2,0.1,2.7c0,0-2-0.5-3.4-1c-0.3-0.4-0.5-0.6-0.5-0.6L8,6.4z
			"/>
		<path class="st3" d="M-0.5,19.1c1.3-3.3,1.4-7,1.2-9.6l0.2,0.9c0.6,1.5,1,2.8,1.5,3.9c-0.5,3.3-2.4,13.8-3.8,6.1
			C-0.9,20.1-0.5,19.1-0.5,19.1z"/>
		<path class="st1" d="M-3.3,14.2c0,1,0.1,1.8,0.2,2.6C-3.5,17.7-4,18.4-5,18.5c0.3-0.6,0.6-1.4,0.8-2.2L-3.3,14.2z"/>
		<path class="st3" d="M-7.1,17.9c0.4-0.3,2-4.4,3.3-7.8l1.1-2.2c-0.4,2-0.6,3.8-0.6,5.5c-0.2,0.9-0.5,1.9-0.9,2.9
			c-0.3,0.8-0.5,1.5-0.8,2.2c-0.9,2-1.8,3-2.5,0.6l-0.1-1.3l0.1-0.2C-7.3,17.8-7.1,17.9-7.1,17.9z"/>
		<path class="st1" d="M-9,5.4c-0.7,0.7-1.3,1.5-1.8,2.2c-3.1,3-7.8,7.3-6.5,4.4c0,0,0.4-1.3,1.2-2.4c1.9-1,4.3-2.5,6.3-3.7L-9,5.4z
			"/>
		<path class="st3" d="M-16.9,1.5c-0.9,0.4-1.5,0.6-1.5,0.6c-3.9,1.9,4.7,0.7,9.5-0.1c-0.8,0.3-1.7,0.8-2.6,1.4
			c-1.9,0.2-4.7,0.6-7.1,0.7c-4,0.2-6.9-0.2-2.6-2.4C-19.9,1.7-18.3,1.6-16.9,1.5z"/>
		<path class="st2" d="M-10.3-0.7c0.3,0,0.6,0,0.8,0c-0.4,0-0.8,0.1-1.2,0.2L-10.3-0.7z"/>
		<path class="st1" d="M-10.3-0.7l-0.3,0.2c-2.2,0.4-4.7,1.3-6.3,2c-1.4,0.1-3,0.2-4.3,0.2c-2-0.1-2.9-0.5-0.2-1.8
			c0,0,2.3-0.6,4.9-1C-14.4-0.9-12-0.7-10.3-0.7z"/>
		<path class="st1" d="M-11.1-5.5c0,0,0,0.1,0,0.1c-1.7-0.4-3.6-0.6-5.3-0.7c-4.3-1.6-9.3-3.7-4.7-3.9c0,0,0.3,0,0.7,0.1
			c1.3,0.7,3,1.1,4.1,1.4C-14.6-7.4-12.7-6.4-11.1-5.5z"/>
		<path class="st3" d="M-16.3-8.5c-1.1-0.3-2.8-0.7-4.1-1.4c-1-0.5-1.7-1.1-1.8-1.8c0,0,1.3-0.4,2.6-0.1C-19.6-11-18.2-9.8-16.3-8.5
			z"/>
		<path class="st1" d="M-15.2-14.4c-3.2-0.3-1.3,1.7,1.7,4c0,0-0.1,0-0.1,0c0,0-8.7-7-3.3-5.5c0,0,1.2,0.5,2.4,1.2
			c0.5,0.5,0.9,0.9,1.4,1.3C-14.3-13.9-15.2-14.4-15.2-14.4z"/>
		<path class="st3" d="M-6.6-8.9c-1.8-1.7-4.6-3.4-6.5-4.4c-0.5-0.4-1-0.9-1.4-1.3c-2.1-2.1-3.5-4.1,0.7-2.6c0,0,2.1,1.6,4,3.5
			C-8.7-12-7.6-10.3-6.6-8.9C-6.6-8.9-6.6-8.9-6.6-8.9z"/>
		<path class="st1" d="M-0.9-9c-0.3,0-0.6,0.1-0.9,0.2c-0.7-3.3-1.8-5.8-2.8-7.6c-1-3.4-1.4-6.5,0.4-5.8c0,0,0.3,0.7,0.8,1.8
			C-3.5-17.2-1.8-11.6-0.9-9L-0.9-9z"/>
		<path class="st1" d="M2.5-8.5c2-6.1,2.2-9.4,2-11.1c0.9-1.6,3.8-6,3.7-1.7c0,0-0.3,3.3-1,6.1C5.1-12.7,3.2-9.5,2.5-8.5
			C2.6-8.5,2.6-8.5,2.5-8.5z"/>
		<path class="st3" d="M9.2-11.3c2.4-3.4,3.6-6.8,3.6-6.8c0,0,0,0-0.1-0.1c1.8-1.4,5.2-3.6,2.6,1.9c-1.6,1-3.8,3-5.8,4.8L9.2-11.3z"
			/>
		<path class="st1" d="M18-13.3c0,0-2.4,2.7-4.6,3.9c1.9-2.1,3.2-4.3,3.9-5.4C18.4-15.3,19.7-15.5,18-13.3z"/>
		<path class="st2" d="M8.2-0.4C7.8-0.5,7.5-0.7,7.2-1c0,0-0.1,0-0.1-0.1c0-0.4,0-0.9,0-1.3C7-2.5,7-2.8,7-3l9.2-1.7
			c0.6-0.2,1.2-0.4,1.7-0.7c1,0,2.1,0,3.3,0.1c0,0,1.5,0.3-2,2.5c0,0-0.6,0.3-1.6,0.7c-1.8,0.8-4.8,1.9-7.3,1.9
			C9.4-0.2,8.8-0.3,8.2-0.4z"/>
		<path class="st2" d="M10.3,2.9C10.2,2.8,10.2,2.8,10.3,2.9L6.4,1.6C6.7,1,6.9,0.2,7-0.5c0.1,0,0.2,0,0.3,0c0.3,0,0.6,0.1,0.9,0.1
			c0.6,0.1,1.2,0.2,2,0.3c2.9,0.4,6.6,1.1,7.6,1.9C17.8,1.9,17.9,2,18,2c0,0-0.1,0-0.2,0C17,2.2,13.4,3,10.3,2.9z"/>
		<path class="st4" d="M6.6,5.2L5.1,3.9c0,0-0.1-0.1-0.1-0.1c0.6-0.6,1.1-1.3,1.4-2.1l3.8,1.2c0,0,0,0,0,0C10.5,3,12.2,4,14,5.3
			c3.1,2.1,6.6,4.8,4.3,5.1c0,0-0.4-0.1-1.2-0.4c-2.2-0.7-6.9-2.4-10-4.4C7,5.5,6.8,5.4,6.6,5.2z"/>
		<path class="st2" d="M5,3.8l0.1,0.1l1.5,1.3L8,6.4l5.4,4.7c0,0,0.2,0.3,0.5,0.6c1.1,1.5,3.4,4.9,1.8,4.4c0,0-4.8-0.8-7.9-5.6
			L4.2,4.5C4.5,4.3,4.7,4,5,3.8z"/>
		<path class="st3" d="M2.9,5.2C3.4,5,3.8,4.8,4.2,4.5l3.6,6.1c0,0,4.1,11.5,0.7,8c0,0-1.8-1.2-2.6-2.9C6,14,4,8.1,2.9,5.2z"/>
		<path class="st2" d="M0.7,9.5C0.6,7.4,0.3,6,0.3,6L0.1,5.9c0.2,0,0.3,0,0.5,0c0.7-0.1,1.4-0.3,2-0.5C2.7,5.8,2.9,6.3,3,6.9
			c0.7,3,1.6,6.7,2,8.2c0.4,2.1,0.7,3.7,0.3,3.8c0,0-0.2,2.3-3-4.5C2,13.2,1.5,12,0.9,10.4L0.7,9.5z"/>
		<path class="st4" d="M-3.3,13.4c0-1.6,0.2-3.5,0.6-5.5c0.2-0.7,0.3-1.5,0.6-2.3c0.7,0.2,1.4,0.3,2.2,0.3L0.3,6
			c0,0,0.3,1.4,0.4,3.5c0.2,2.6,0.1,6.3-1.2,9.6c0,0-0.4,1-1,1.2c-0.4,0.2-0.8,0.1-1.2-0.9c0,0-0.3-1-0.4-2.7
			c-0.1-0.7-0.1-1.6-0.2-2.6C-3.3,13.9-3.3,13.6-3.3,13.4z"/>
		<path class="st2" d="M-3.5,5.1c0.4,0.2,0.9,0.4,1.4,0.6C-2.3,6.2-3,8.1-3.8,10.1c-1.3,3.4-2.9,7.5-3.3,7.8c0,0-0.2-0.1-0.4-0.3
			C-8,17-8.6,15.5-7,11.4c0,0,0.3-0.8,0.7-1.8c1.1-1.8,2-3.4,2.5-4.3C-3.7,5.2-3.6,5.1-3.5,5.1z"/>
		<path class="st2" d="M-5.1,3.9C-5.1,3.9-5.1,3.9-5.1,3.9c0.5,0.4,1,0.8,1.5,1.1c0,0.1-0.1,0.2-0.2,0.3c-0.5,0.9-1.4,2.5-2.5,4.3
			c-2.3,3.9-5.5,8.5-6.9,7.8c0,0-1-1.5,1.2-3.8c0,0,0,0,0-0.1C-9.7,11.5-6.2,5.7-5.1,3.9z"/>
		<path class="st4" d="M-8.6,5C-7,4-5.9,3.2-5.9,3.2c0-0.1,0-0.1,0-0.2c0.2,0.3,0.5,0.6,0.7,0.8c0,0,0,0,0,0c-1,1.7-4.6,7.6-6.8,9.6
			c-0.5,0.5-0.9,0.7-1.3,0.7c0,0,0.1-3.1,2.4-6.5c0.5-0.7,1.1-1.5,1.8-2.2C-8.9,5.3-8.7,5.2-8.6,5z"/>
		<path class="st2" d="M-8.9,2C-8,1.8-7.2,1.7-6.7,1.6c0.2,0.5,0.5,1,0.9,1.4c0,0.1,0,0.1,0,0.2C-5.9,3.2-7,4-8.6,5
			c-0.4,0.3-0.8,0.5-1.2,0.8c-2,1.3-4.4,2.8-6.3,3.7c-2.6,1.4-4.3,1.8-2.6-0.5c0,0,1.3-1.2,3-2.6c1.3-1,2.8-2.2,4.3-3.1
			C-10.5,2.8-9.7,2.3-8.9,2z"/>
		<path class="st2" d="M-6.7,1.6C-7.2,1.7-8,1.8-8.9,2c-4.8,0.8-13.3,2.1-9.5,0.1c0,0,0.6-0.3,1.5-0.6c1.5-0.6,4-1.6,6.3-2
			c0.4-0.1,0.8-0.1,1.2-0.2c0.7,0,1.2,0,1.5,0c0.2,0,0.4,0.1,0.6,0.1C-7.2,0.2-7,1-6.7,1.6z"/>
		<path class="st3" d="M-7.4-2.3c0,0.5,0,1,0,1.5c0,0,0,0,0,0c-0.1,0.1-0.1,0.1-0.2,0.1c0,0-0.1,0-0.4,0c-0.3,0-0.9,0-1.5,0
			c-0.3,0-0.5,0-0.8,0c-1.8-0.1-4.1-0.2-6.2-0.5c-2.4-0.4-4.4-1-4.9-2c0,0-3.1-1.9,0.8-1.7c3,1,9.8,1.9,12.5,2.3
			C-7.8-2.5-7.6-2.4-7.4-2.3z"/>
		<path class="st2" d="M-10.7-5.3c1.8,1,3.2,1.6,3.2,1.6c0.1,0,0.2-0.1,0.3-0.1c0,0,0.1,0.1,0.1,0.1c-0.1,0.4-0.2,0.7-0.2,1.1
			c-0.2,0-0.4-0.1-0.6-0.1C-10.8-3-17.6-4-20.5-4.9c-1.6-0.5-2.1-1-0.3-1.4c0,0,2,0,4.5,0.2c1.7,0.1,3.6,0.4,5.3,0.7
			C-10.9-5.4-10.8-5.3-10.7-5.3z"/>
		<path class="st2" d="M-6.4-5.4c-0.3,0.5-0.5,1-0.7,1.5c0,0-0.1,0-0.2,0c-0.1,0-0.2,0.1-0.3,0.1c0,0-1.4-0.7-3.2-1.6
			c-0.1-0.1-0.2-0.1-0.4-0.2c-1.6-0.9-3.6-2-5.2-3c-1.9-1.3-3.4-2.5-3.4-3.3c0-0.4,0.3-0.6,1-0.8c0,0,2.9,1.3,5.9,2.8
			c2.1,1.6,4.5,3.1,6,4.1C-6.5-5.5-6.5-5.5-6.4-5.4z"/>
		<path class="st4" d="M-15.2-14.4c0,0,0.9,0.4,2.1,1.1c1.9,1,4.6,2.7,6.5,4.4c0,0,0.1,0,0.1,0.1C-6-8-5.6-7.3-5.3-6.9
			C-5.7-6.5-6.1-6-6.4-5.5c-0.1,0-0.1-0.1-0.2-0.1c-1.5-0.9-3.9-2.5-6-4.1c-0.3-0.2-0.6-0.4-0.9-0.6C-16.5-12.6-18.4-14.7-15.2-14.4
			z"/>
		<path class="st2" d="M-4-7.9c-0.5,0.3-0.9,0.6-1.3,1C-5.6-7.3-6-8-6.6-8.8c0,0-0.1-0.1-0.1-0.1c-0.9-1.4-2.1-3.1-3.2-4.8
			c-2.7-4.3-4.9-8.4-1.1-5.1c0,0,2.3,2.4,4.3,5.2c1,2.3,2.1,4.4,2.6,5.4C-4-8.1-4-8-4-7.9z"/>
		<path class="st2" d="M-3.9-8C-3.9-8.1-4-8.1-4-8.2c-0.5-1-1.6-3.1-2.6-5.4c-2-4.4-3.8-9.2-0.8-6.4c0,0,1.4,1.1,2.8,3.6
			c1,1.8,2.1,4.3,2.8,7.6C-2.6-8.7-3.3-8.4-3.9-8z"/>
		<path class="st3" d="M0.4-9.5c0,0.1-0.1,0.3-0.1,0.4c-0.4,0-0.8,0-1.2,0c-0.8-2.6-2.6-8.2-2.6-11.5c0-1.7,0.5-2.8,1.8-2.5
			c0,0,1.8,4.1,2.4,8.4C0.3-12.5,0.3-10.6,0.4-9.5z"/>
		<path class="st2" d="M2.5-8.5C1.9-8.8,1.1-9,0.4-9c0-0.1,0-0.3,0-0.4c0-1.1,0-3.1,0.3-5.1c0.4-2.7,1.2-5.5,3.2-6.9
			c0,0,0.5,0.4,0.7,1.9C4.7-17.9,4.5-14.6,2.5-8.5z"/>
		<path class="st4" d="M9.2-11.3c-0.2,0.2-0.3,0.5-0.5,0.7C6.9-8.9,5.5-7.4,4.9-6.9C4.3-7.5,3.5-8.1,2.6-8.5c0.6-1,2.5-4.2,4.6-6.8
			c2-2.5,4.3-4.4,5.5-2.9c0,0,0,0,0.1,0.1C12.8-18.1,11.6-14.7,9.2-11.3z"/>
		<path class="st2" d="M6.4-4.7C6-5.5,5.5-6.2,4.9-6.9c0.6-0.6,2-2.1,3.7-3.7c0.3-0.3,0.5-0.5,0.8-0.8c2-1.9,4.2-3.8,5.8-4.8
			c1.6-1,2.7-1.1,2.4,0.5c0,0-0.2,0.3-0.5,0.8c-0.7,1.2-2.1,3.3-3.9,5.4c-1,1.1-2.1,2.2-3.3,3.2C8.5-5.6,7.2-5.1,6.4-4.7L6.4-4.7z"
			/>
		<path class="st3" d="M7-3C6.8-3.6,6.7-4.2,6.4-4.7c0,0,0,0,0,0C7.2-5.1,8.5-5.6,10-6.2c5.1-2.1,12.5-4.8,12.5-2.5
			c0,0-1.1,1.8-4.7,3.4c-0.5,0.2-1.1,0.4-1.7,0.7L7-3z"/>
		<path class="st1" d="M2.7,5.3c0.1,0,0.2-0.1,0.2-0.1C4,8.1,6,14,5.9,15.6c0,0.4-0.2,0.5-0.6,0.2c0,0-0.1-0.3-0.2-0.7
			c-0.4-1.5-1.3-5.2-2-8.2C2.9,6.4,2.8,5.8,2.7,5.3z"/>
		<path class="st5" d="M7-0.6C7-0.6,7-0.6,7-0.6C6.9,0.2,6.7,1,6.4,1.6C6.1,2.4,5.6,3.1,5,3.8c0,0,0,0,0,0C4.7,4,4.5,4.3,4.2,4.5
			C3.8,4.8,3.4,5,2.9,5.2c-0.1,0-0.2,0.1-0.2,0.1c0,0,0,0-0.1,0C2,5.6,1.3,5.8,0.6,5.9c-0.2,0-0.4,0-0.5,0c-0.8,0-1.5-0.1-2.2-0.3
			c0,0,0,0,0,0c-0.5-0.1-0.9-0.3-1.4-0.6c0,0-0.1,0-0.1-0.1c-0.5-0.3-1-0.7-1.4-1.1c0,0,0,0,0,0C-5.4,3.6-5.6,3.3-5.9,3
			c-0.3-0.4-0.6-0.9-0.9-1.4C-7,1-7.2,0.2-7.3-0.5c0-0.1,0-0.2,0-0.3c0,0,0,0,0,0c-0.1-0.5-0.1-1,0-1.5c0-0.1,0-0.2,0-0.3
			c0-0.4,0.1-0.7,0.2-1.1c0-0.1,0-0.1,0-0.2c0.2-0.5,0.4-1.1,0.7-1.5c0,0,0-0.1,0.1-0.1c0.3-0.5,0.7-1,1.1-1.5
			c0.4-0.4,0.8-0.7,1.3-1C-4-8-3.9-8-3.9-8c0.6-0.4,1.3-0.7,2.1-0.9C-1.5-8.9-1.2-9-0.9-9h0c0.4,0,0.8,0,1.2,0c0.1,0,0.1,0,0.2,0
			C1.1-9,1.9-8.8,2.5-8.5c0,0,0.1,0,0.1,0c0.9,0.4,1.7,0.9,2.3,1.6C5.5-6.2,6-5.5,6.4-4.7c0,0,0,0,0,0C6.7-4.2,6.8-3.6,7-3
			C7-2.8,7-2.5,7.1-2.3c0,0.4,0,0.9,0,1.3c0,0,0,0.1,0,0.1C7.1-0.8,7.1-0.7,7-0.6z"/>
		<g>
			<polygon class="st6" points="6.8,-1.3 5.9,-2.5 6.4,-4 5.7,-5.1 4.5,-5.7 3.5,-6.3 3,-7.8 1.7,-8.1 0.6,-7.9 -0.1,-7.5 
				-1.4,-7.9 -2.5,-7.2 -4,-7.4 -4.7,-6.2 -5.6,-5.3 -6.2,-4.2 -6.9,-3.2 -6.8,-2.1 -6.7,-1.3 -6.9,0 -6.3,1.2 -5.6,2.2 -5.2,3.4 
				-4.1,4 -2.8,4.3 -1.8,4.9 -0.9,5.1 -0.1,4.8 1.1,5 2.4,4.8 3.7,4.7 4.4,3.4 5.3,2.6 6.3,1.7 6.6,0.5 6.2,-0.6 			"/>
		</g>
		<path class="st7" d="M4.5-1.3C4.5-3.9,2.4-6-0.1-6c-2.6,0-4.7,2.1-4.7,4.7c0,2.6,2.1,4.7,4.7,4.7C2.4,3.3,4.5,1.2,4.5-1.3z"/>
		<path class="st8" d="M3-1.3c0-1.7-1.4-3.1-3.1-3.1c-1.7,0-3.1,1.4-3.1,3.1c0,1.7,1.4,3.1,3.1,3.1C1.6,1.8,3,0.4,3-1.3z"/>
		<polygon class="st7" points="4.9,0 4.5,0.8 4.9,1.6 5.8,1.6 6.2,0.8 5.8,0 		"/>
		<polygon class="st7" points="3.7,-4.5 3.3,-3.7 3.7,-3 4.6,-3 5.1,-3.7 4.6,-4.5 		"/>
		<polygon class="st7" points="0.2,-4.1 -0.3,-3.3 0.2,-2.6 1.1,-2.6 1.5,-3.3 1.1,-4.1 		"/>
		<polygon class="st7" points="-0.6,0.8 -1.1,1.6 -0.6,2.4 0.3,2.4 0.7,1.6 0.3,0.8 		"/>
		<polygon class="st7" points="-2.5,3.2 -3,3.9 -2.5,4.7 -1.7,4.7 -1.2,3.9 -1.7,3.2 		"/>
		<polygon class="st7" points="-5.5,1.2 -5.9,2 -5.5,2.7 -4.6,2.7 -4.2,2 -4.6,1.2 		"/>
		<polygon class="st7" points="-5.3,-2.9 -5.8,-2.2 -5.3,-1.4 -4.4,-1.4 -4,-2.2 -4.4,-2.9 		"/>
		<polygon class="st7" points="-5.9,-3.4 -6.4,-2.6 -5.9,-1.8 -5.1,-1.8 -4.6,-2.6 -5.1,-3.4 		"/>
		<polygon class="st7" points="-4.5,-5.1 -4.9,-4.3 -4.5,-3.6 -3.6,-3.6 -3.2,-4.3 -3.6,-5.1 		"/>
		<polygon class="st7" points="-1.3,-3.9 -1.8,-3.1 -1.3,-2.4 -0.4,-2.4 0,-3.1 -0.4,-3.9 		"/>
		<polygon class="st7" points="0.5,-0.9 0,-0.2 0.5,0.6 1.3,0.6 1.8,-0.2 1.3,-0.9 		"/>
		<polygon class="st7" points="2.4,-3.7 2,-2.9 2.4,-2.2 3.3,-2.2 3.8,-2.9 3.3,-3.7 		"/>
		<polygon class="st7" points="2.2,0.6 1.8,1.4 2.2,2.2 3.1,2.2 3.6,1.4 3.1,0.6 		"/>
	</g>
</symbol>
<symbol  id="ヒナギク" viewBox="-23.7 -23.7 47.4 47.4">
	<g>
		<rect x="-21.4" y="-21.5" class="st0" width="43" height="43.1"/>
	</g>
	<g>
		<g>
			<path class="st9" d="M22.3,2.8c-3.7,2.1-14.3-1-18.1-2.2c0-0.2,0.1-0.5,0.1-0.7c0-0.3,0-0.6-0.1-0.8c12.8-3.6,18-0.2,18-0.2
				C25.5,0.8,22.3,2.8,22.3,2.8z"/>
			<path class="st10" d="M20.3,2.4C16.9,4.2,7.5,1.6,4.2,0.6c0-0.2,0.1-0.4,0.1-0.6c0-0.2,0-0.5-0.1-0.7c11.4-3,16-0.2,16-0.2
				C23.1,0.7,20.3,2.4,20.3,2.4z"/>
			<path class="st11" d="M19.6,1.2C16.4,2.1,7.4,0.8,4.2,0.3c0-0.1,0.1-0.2,0.1-0.3c0-0.1,0-0.2-0.1-0.3c10.9-1.5,15.4-0.1,15.4-0.1
				C22.3,0.4,19.6,1.2,19.6,1.2z"/>
		</g>
		<g>
			<path class="st9" d="M13.8,17.7C9.7,16.5,4.3,6.9,2.5,3.4c0.2-0.1,0.4-0.3,0.6-0.5c0.2-0.2,0.4-0.4,0.5-0.6
				c11.6,6.5,12.9,12.6,12.9,12.6C17.5,18.5,13.8,17.7,13.8,17.7z"/>
			<path class="st10" d="M12.7,16C9.1,14.9,4.2,6.4,2.5,3.4C2.7,3.3,2.9,3.2,3,3c0.2-0.2,0.3-0.3,0.4-0.5
				c10.1,5.9,11.5,11.2,11.5,11.2C15.9,16.8,12.7,16,12.7,16z"/>
			<path class="st11" d="M13.1,14.7C10.2,13.1,4.7,5.8,2.8,3.2C2.9,3.1,2.9,3.1,3,3c0.1-0.1,0.1-0.2,0.2-0.3
				c8.8,6.6,11,10.8,11,10.8C15.6,16,13.1,14.7,13.1,14.7z"/>
		</g>
		<g>
			<path class="st9" d="M-2.7,22.3C-4.8,18.6-1.8,7.9-0.6,4.2c0.2,0,0.5,0.1,0.7,0.1c0.3,0,0.6,0,0.8-0.1c3.6,12.8,0.3,18,0.3,18
				C-0.7,25.5-2.7,22.3-2.7,22.3z"/>
			<path class="st10" d="M-2.3,20.3C-4.1,17-1.6,7.5-0.6,4.2c0.2,0,0.4,0.1,0.6,0.1c0.2,0,0.5,0,0.7-0.1c3,11.3,0.3,16,0.3,16
				C-0.6,23.1-2.3,20.3-2.3,20.3z"/>
			<path class="st11" d="M-1.1,19.6C-2,16.4-0.8,7.4-0.3,4.2c0.1,0,0.2,0.1,0.3,0.1c0.1,0,0.2,0,0.3-0.1c1.5,10.9,0.2,15.4,0.2,15.4
				C-0.3,22.3-1.1,19.6-1.1,19.6z"/>
		</g>
		<g>
			<path class="st9" d="M-17.6,13.9C-16.5,9.8-6.9,4.4-3.4,2.6c0.1,0.2,0.3,0.4,0.5,0.6c0.2,0.2,0.4,0.4,0.6,0.5
				c-6.4,11.6-12.5,13-12.5,13C-18.4,17.6-17.6,13.9-17.6,13.9z"/>
			<path class="st10" d="M-16,12.7c1.1-3.6,9.5-8.5,12.6-10.2C-3.3,2.7-3.1,2.9-3,3c0.2,0.2,0.3,0.3,0.5,0.4
				C-8.3,13.6-13.6,15-13.6,15C-16.8,15.9-16,12.7-16,12.7z"/>
			<path class="st11" d="M-14.6,13.1C-13,10.2-5.8,4.7-3.2,2.8C-3.1,2.9-3.1,3-3,3c0.1,0.1,0.2,0.1,0.3,0.2
				c-6.6,8.8-10.7,11-10.7,11C-16,15.6-14.6,13.1-14.6,13.1z"/>
		</g>
		<g>
			<path class="st9" d="M-22.3-2.6c3.7-2.1,14.3,0.9,18.1,2c0,0.2-0.1,0.5-0.1,0.7c0,0.3,0,0.6,0.1,0.8c-12.7,3.7-18,0.4-18,0.4
				C-25.5-0.5-22.3-2.6-22.3-2.6z"/>
			<path class="st10" d="M-20.3-2.3C-17-4-7.5-1.5-4.2-0.6c0,0.2-0.1,0.4-0.1,0.6c0,0.2,0,0.5,0.1,0.7c-11.3,3-16,0.3-16,0.3
				C-23.1-0.5-20.3-2.3-20.3-2.3z"/>
			<path class="st11" d="M-19.6-1c3.2-0.9,12.2,0.3,15.4,0.8c0,0.1-0.1,0.2-0.1,0.3c0,0.1,0,0.2,0.1,0.3
				c-10.9,1.6-15.4,0.2-15.4,0.2C-22.3-0.2-19.6-1-19.6-1z"/>
		</g>
		<g>
			<path class="st9" d="M-14-17.6C-9.8-16.5-4.4-6.8-2.6-3.4C-2.8-3.2-3-3.1-3.1-2.9c-0.2,0.2-0.4,0.4-0.5,0.6
				c-11.6-6.4-13-12.5-13-12.5C-17.7-18.4-14-17.6-14-17.6z"/>
			<path class="st10" d="M-12.8-15.9c3.6,1.1,8.5,9.5,10.2,12.5C-2.7-3.3-2.9-3.1-3-3c-0.2,0.2-0.3,0.3-0.4,0.5
				C-13.6-8.3-15-13.5-15-13.5C-16-16.7-12.8-15.9-12.8-15.9z"/>
			<path class="st11" d="M-13.2-14.6C-10.3-13-4.7-5.7-2.8-3.2C-2.9-3.1-3-3.1-3-3c-0.1,0.1-0.1,0.2-0.2,0.3
				c-8.8-6.6-11-10.7-11-10.7C-15.7-15.9-13.2-14.6-13.2-14.6z"/>
		</g>
		<g>
			<path class="st9" d="M2.5-22.3C4.7-18.6,1.7-8,0.6-4.2c-0.2,0-0.5-0.1-0.7-0.1c-0.3,0-0.6,0-0.8,0.1c-3.7-12.7-0.4-18-0.4-18
				C0.4-25.5,2.5-22.3,2.5-22.3z"/>
			<path class="st10" d="M2.2-20.3C4-17,1.5-7.5,0.6-4.2C0.4-4.2,0.2-4.3,0-4.3c-0.2,0-0.5,0-0.7,0.1c-3.1-11.3-0.4-16-0.4-16
				C0.5-23.1,2.2-20.3,2.2-20.3z"/>
			<path class="st11" d="M1-19.6C1.9-16.4,0.7-7.4,0.3-4.2C0.2-4.2,0.1-4.3,0-4.3c-0.1,0-0.2,0-0.3,0.1C-2-15.1-0.7-19.6-0.7-19.6
				C0.1-22.3,1-19.6,1-19.6z"/>
		</g>
		<g>
			<path class="st9" d="M17.5-14C16.4-9.9,6.8-4.4,3.4-2.6C3.2-2.8,3.1-3,2.9-3.1C2.7-3.3,2.5-3.5,2.3-3.7
				c6.3-11.7,12.4-13.1,12.4-13.1C18.3-17.7,17.5-14,17.5-14z"/>
			<path class="st10" d="M15.9-12.8C14.8-9.3,6.4-4.3,3.4-2.6C3.3-2.7,3.1-2.9,3-3C2.8-3.2,2.6-3.3,2.4-3.5
				c5.8-10.2,11-11.6,11-11.6C16.6-16.1,15.9-12.8,15.9-12.8z"/>
			<path class="st11" d="M14.5-13.2C12.9-10.3,5.7-4.7,3.2-2.8C3.1-2.9,3.1-3,3-3C2.9-3.1,2.8-3.2,2.7-3.2
				c6.5-8.8,10.6-11.1,10.6-11.1C15.8-15.8,14.5-13.2,14.5-13.2z"/>
		</g>
		<g>
			<path class="st9" d="M20.6-8.8C18.4-5.1,7.7-2.4,3.9-1.5C3.8-1.8,3.7-2,3.6-2.2C3.4-2.4,3.2-2.7,3.1-2.9
				c9.2-9.5,15.4-9.3,15.4-9.3C22.3-12.2,20.6-8.8,20.6-8.8z"/>
			<path class="st10" d="M18.6-8.1c-2,3.2-11.4,5.7-14.8,6.6C3.8-1.7,3.7-1.9,3.6-2.1C3.5-2.3,3.4-2.5,3.2-2.6
				c8.3-8.3,13.7-8.3,13.7-8.3C20.2-11,18.6-8.1,18.6-8.1z"/>
			<path class="st11" d="M17.5-8.8C15.1-6.5,6.7-3,3.7-1.8c0-0.1-0.1-0.2-0.1-0.3C3.6-2.2,3.5-2.3,3.4-2.3
				c8.7-6.8,13.2-7.8,13.2-7.8C19.4-10.9,17.5-8.8,17.5-8.8z"/>
			<path class="st11" d="M17.5-8.8C15.1-6.5,6.7-3,3.7-1.8c0-0.1-0.1-0.2-0.1-0.3C3.6-2.2,3.5-2.3,3.4-2.3
				c8.7-6.8,13.2-7.8,13.2-7.8C19.4-10.9,17.5-8.8,17.5-8.8z"/>
		</g>
		<g>
			<path class="st9" d="M19.2,11.9c-4.3,0.3-12.6-7-15.4-9.7C3.9,2,4,1.8,4.1,1.6c0.1-0.3,0.2-0.5,0.3-0.8C17.5,3,20.8,8.3,20.8,8.3
				C23,11.4,19.2,11.9,19.2,11.9z"/>
			<path class="st10" d="M17.5,10.7C13.8,10.8,6.4,4.5,3.8,2.2C3.9,2.1,4,1.9,4.1,1.7c0.1-0.2,0.2-0.4,0.2-0.6
				c11.5,2.2,14.6,6.7,14.6,6.7C20.8,10.4,17.5,10.7,17.5,10.7z"/>
			<path class="st11" d="M17.5,9.3C14.2,8.7,6.6,3.7,3.9,1.9C4,1.9,4,1.8,4.1,1.7c0-0.1,0.1-0.2,0.1-0.3c10.5,3.3,13.9,6.5,13.9,6.5
				C20.3,9.7,17.5,9.3,17.5,9.3z"/>
		</g>
		<g>
			<path class="st9" d="M1.4,22.5c-2.7-3.3-1.5-14.3-1-18.2c0.2,0,0.5,0,0.7-0.1c0.3,0,0.5-0.1,0.8-0.2c5.8,12,3.4,17.7,3.4,17.7
				C3.9,25.3,1.4,22.5,1.4,22.5z"/>
			<path class="st10" d="M1.4,20.5c-2.3-3-1.4-12.7-1-16.1c0.2,0,0.4,0,0.6,0c0.2,0,0.4-0.1,0.7-0.2c4.9,10.7,3,15.7,3,15.7
				C3.6,23,1.4,20.5,1.4,20.5z"/>
			<path class="st11" d="M2.5,19.6c-1.4-3-1.7-12.1-1.8-15.3c0.1,0,0.2,0,0.3,0c0.1,0,0.2-0.1,0.3-0.1c3.3,10.5,2.8,15.1,2.8,15.1
				C3.8,22.2,2.5,19.6,2.5,19.6z"/>
		</g>
		<g>
			<path class="st9" d="M-12.4,18.5C-12.6,14.2-5,6.2-2.2,3.4C-2,3.5-1.8,3.7-1.6,3.8C-1.4,3.9-1.1,4-0.9,4.1c-2.7,13-8,16.1-8,16.1
				C-12.1,22.2-12.4,18.5-12.4,18.5z"/>
			<path class="st10" d="M-11.2,16.9c0-3.7,6.6-11,8.9-13.5c0.2,0.1,0.3,0.2,0.5,0.3C-1.5,3.8-1.3,3.9-1.1,4
				c-2.6,11.5-7.2,14.3-7.2,14.3C-11,20.1-11.2,16.9-11.2,16.9z"/>
			<path class="st11" d="M-9.8,16.8C-9.1,13.6-3.9,6.1-2,3.5c0.1,0.1,0.2,0.1,0.2,0.2c0.1,0,0.2,0.1,0.3,0.1
				c-3.7,10.4-6.9,13.7-6.9,13.7C-10.3,19.6-9.8,16.8-9.8,16.8z"/>
		</g>
		<g>
			<path class="st9" d="M-20.3,7.4C-17.9,3.9-7,1.9-3.1,1.3C-3,1.5-3,1.8-2.9,2c0.1,0.2,0.3,0.5,0.4,0.7c-9.8,8.9-16,8.3-16,8.3
				C-22.2,10.7-20.3,7.4-20.3,7.4z"/>
			<path class="st10" d="M-18.3,6.9c2.2-3,11.8-5,15.2-5.6C-3.1,1.5-3,1.7-2.9,1.9c0.1,0.2,0.2,0.4,0.4,0.6
				c-8.8,7.7-14.2,7.3-14.2,7.3C-20.1,9.7-18.3,6.9-18.3,6.9z"/>
			<path class="st11" d="M-17.2,7.7C-14.7,5.5-6.1,2.6-3,1.6c0,0.1,0,0.2,0.1,0.3C-2.9,2-2.8,2.1-2.7,2.1c-9.1,6.2-13.7,7-13.7,7
				C-19.2,9.6-17.2,7.7-17.2,7.7z"/>
		</g>
		<g>
			<path class="st9" d="M-18.2-11.3C-14-11.8-5.4-4.8-2.5-2.2C-2.6-2-2.7-1.8-2.8-1.6C-2.9-1.3-3-1-3.1-0.8
				c-13.2-1.7-16.7-6.9-16.7-6.9C-22-10.7-18.2-11.3-18.2-11.3z"/>
			<path class="st10" d="M-16.5-10.2c3.7-0.3,11.4,5.8,14.1,8C-2.6-2-2.7-1.9-2.8-1.7C-2.8-1.5-2.9-1.2-3-1
				c-11.6-1.7-14.8-6.1-14.8-6.1C-19.8-9.8-16.5-10.2-16.5-10.2z"/>
			<path class="st11" d="M-16.4-8.8c3.3,0.5,11.1,5.2,13.8,6.9c-0.1,0.1-0.1,0.2-0.2,0.3c0,0.1-0.1,0.2-0.1,0.3
				c-10.6-2.9-14.2-6-14.2-6C-19.2-9.1-16.4-8.8-16.4-8.8z"/>
		</g>
		<g>
			<path class="st9" d="M12.5-18C12.6-13.7,5-5.7,2.3-2.9C2.1-3,1.9-3.2,1.7-3.3C1.4-3.4,1.1-3.5,0.9-3.6C3.6-16.6,9-19.7,9-19.7
				C12.2-21.7,12.5-18,12.5-18z"/>
			<path class="st10" d="M11.2-16.3c0,3.7-6.6,11-9,13.4C2.1-3,2-3.1,1.8-3.2C1.6-3.3,1.3-3.4,1.1-3.5c2.6-11.5,7.2-14.3,7.2-14.3
				C11.1-19.6,11.2-16.3,11.2-16.3z"/>
			<path class="st11" d="M9.9-16.3C9.2-13.1,3.9-5.6,2-3C1.9-3.1,1.9-3.2,1.8-3.2C1.7-3.3,1.6-3.3,1.4-3.3c3.7-10.4,7-13.7,7-13.7
				C10.4-19.1,9.9-16.3,9.9-16.3z"/>
		</g>
		<path class="st11" d="M13,15C10.2,13.3,4.8,6,2.9,3.4c0.1,0,0.2-0.1,0.3-0.2C3.2,3.1,3.3,3,3.3,2.9C12,9.7,14.2,13.8,14.2,13.8
			C15.5,16.3,13,15,13,15z"/>
		<path class="st11" d="M-14.8,11.9c1.9-2.7,9.8-7.4,12.5-9c0,0.1,0.1,0.2,0.1,0.3C-2.1,3.2-2,3.3-1.9,3.4c-7.5,8-11.9,9.7-11.9,9.7
			C-16.4,14.3-14.8,11.9-14.8,11.9z"/>
		<path class="st11" d="M-18.4-3.2c3.3-0.2,11.9,2.7,15,3.8c0,0.1-0.1,0.2-0.1,0.3c0,0.1,0,0.2,0,0.3c-11-0.6-15.1-2.8-15.1-2.8
			C-21.2-2.9-18.4-3.2-18.4-3.2z"/>
		<path class="st11" d="M-11.4-14.1c2.7,1.9,7.4,9.8,9,12.6c-0.1,0-0.2,0.1-0.3,0.1c-0.1,0.1-0.2,0.2-0.2,0.3
			c-8-7.6-9.7-11.9-9.7-11.9C-13.8-15.7-11.4-14.1-11.4-14.1z"/>
		<path class="st11" d="M2.4-19.1C3-15.8,1.1-6.9,0.3-3.8C0.2-3.8,0.1-3.8,0-3.8c-0.1,0-0.2,0-0.3,0c-0.6-11,1.1-15.3,1.1-15.3
			C1.8-21.8,2.4-19.1,2.4-19.1z"/>
		<g>
			<polygon class="st12" points="4.8,0.7 3.8,2.6 2.9,4 0.6,4.7 -0.1,4.4 -0.9,4.6 -2.9,3.7 -4.2,2.8 -5.1,0.6 -4.9,0 -4.8,-0.9 
				-3.6,-2.7 -2.9,-3.9 -0.6,-4.7 -0.1,-4.7 0.9,-4.2 3,-3.8 3.8,-2.5 4.8,-0.7 4.8,0 			"/>
		</g>
		<g>
			<polygon class="st13" points="4.2,0.6 2.8,1.8 2.7,3.6 0.7,4.2 0,2.9 -0.6,3.7 -2.1,2.8 -3.7,2.5 -4.5,0.5 -3.8,0 -3.7,-0.7 
				-2.4,-1.8 -2.4,-3.4 -0.4,-4.3 0,-4.1 0.7,-2.8 2.8,-3.4 3,-1.9 4.3,-0.7 4.1,0 			"/>
		</g>
		<path class="st12" d="M2.2-1.3c0-0.4-0.3-0.6-0.7-0.6S0.9-1.6,0.9-1.3c0,0.4,0.3,0.6,0.7,0.6S2.2-0.9,2.2-1.3z"/>
		<path class="st12" d="M2.9-0.8c0-0.4-0.3-0.6-0.7-0.6c-0.4,0-0.7,0.3-0.7,0.6c0,0.4,0.3,0.6,0.7,0.6C2.6-0.2,2.9-0.5,2.9-0.8z"/>
		<path class="st12" d="M2.9,0.4c0-0.4-0.3-0.6-0.7-0.6c-0.4,0-0.7,0.3-0.7,0.6c0,0.4,0.3,0.6,0.7,0.6C2.6,1.1,2.9,0.8,2.9,0.4z"/>
		<path class="st12" d="M2,2.4C2,2,1.7,1.7,1.3,1.7C1,1.7,0.7,2,0.7,2.4C0.7,2.7,1,3,1.3,3C1.7,3,2,2.7,2,2.4z"/>
		<path class="st12" d="M0.7,1.3c0-0.4-0.3-0.6-0.7-0.6c-0.4,0-0.7,0.3-0.7,0.6c0,0.4,0.3,0.6,0.7,0.6C0.4,1.9,0.7,1.7,0.7,1.3z"/>
		<path class="st12" d="M0.7-0.4c0-0.4-0.3-0.6-0.7-0.6c-0.4,0-0.7,0.3-0.7,0.6c0,0.4,0.3,0.6,0.7,0.6C0.4,0.2,0.7-0.1,0.7-0.4z"/>
		<path class="st12" d="M0-2.3C0-2.7-0.3-3-0.7-3c-0.4,0-0.7,0.3-0.7,0.6s0.3,0.6,0.7,0.6C-0.3-1.7,0-2,0-2.3z"/>
		<path class="st12" d="M-1.4-0.9c0-0.4-0.3-0.6-0.7-0.6c-0.4,0-0.7,0.3-0.7,0.6c0,0.4,0.3,0.6,0.7,0.6C-1.7-0.2-1.4-0.5-1.4-0.9z"
			/>
		<path class="st12" d="M-2,0.5c0-0.4-0.3-0.6-0.7-0.6c-0.4,0-0.7,0.3-0.7,0.6c0,0.4,0.3,0.6,0.7,0.6C-2.3,1.1-2,0.8-2,0.5z"/>
		<path class="st12" d="M-0.9,2.7c0-0.4-0.3-0.6-0.7-0.6c-0.4,0-0.7,0.3-0.7,0.6c0,0.4,0.3,0.6,0.7,0.6C-1.2,3.4-0.9,3.1-0.9,2.7z"
			/>
	</g>
</symbol>
<g id="原画">
	<g>
		<linearGradient id="SVGID_1_" gradientUnits="userSpaceOnUse" x1="41.5925" y1="51.7762" x2="165.0317" y2="74.3209">
			<stop  offset="0" style="stop-color:#FFFFFF"/>
			<stop  offset="2.080678e-02" style="stop-color:#D6EAEC"/>
			<stop  offset="4.951742e-02" style="stop-color:#A4D0D5"/>
			<stop  offset="7.970844e-02" style="stop-color:#78B9C1"/>
			<stop  offset="0.1108" style="stop-color:#53A5B0"/>
			<stop  offset="0.1431" style="stop-color:#3596A2"/>
			<stop  offset="0.177" style="stop-color:#1E8998"/>
			<stop  offset="0.2131" style="stop-color:#0D8190"/>
			<stop  offset="0.253" style="stop-color:#037C8B"/>
			<stop  offset="0.3041" style="stop-color:#007A8A"/>
			<stop  offset="0.9998" style="stop-color:#000000"/>
		</linearGradient>
		<path class="st14" d="M157.8,51.9h-38.5c-1.1,0-2,0.9-2,1.9c0,1.1,0.9,2,2,2h38.5c2.6,0,4.6,2.1,4.6,4.6v10.4
			c0,2.6-2.1,4.6-4.6,4.6l-78.5-0.4c-0.4,0-0.7-0.1-1-0.3c0,0.7-0.1,1.4-0.3,2c-3.7-2.2-7.3,1-9.6-0.4c-0.5,0.1-0.9-0.1-1-0.5
			c-0.9,0.1-1.9,0.1-2.8,0c-1.2-0.2-2.4-0.6-3.6-0.7c-0.6-0.1-0.9-0.5-1-0.9c-0.3-0.6-0.3-1.3,0.1-1.9c0.9-1.4,1.4-3.3,1.1-6
			c-3.8,5.5-6.5,3.6-6.7-2.1c-0.1-1.3,6.3-6.8,5.4-5.9c-1.3,1.3,2.6-2.3-0.5-0.9c0,0-0.1,0-0.1,0c-0.3,0.1-2.3,0.9-4.4,2.2v-1.1
			c17.8-12.2,5.5-23.1-1.2-27.5c-1.3-0.9-3.1,0.1-3,1.7c0.1,2.4-0.3,5.5-2.5,7.9c-3.9,4.5-13.6,13.3,0.1,17.6
			c0.6,0.2,1.1,0.7,1.3,1.3l0.9,3.2c0.1,0.5,0.1,1.1-0.2,1.5c-1.8,2.8-1.7,5.8,3.9,10.3c0,0,0,0,0,0.1c0.6,0.4,1.2,1,1.7,1.4
			c1.3,1.1,2.8,1.6,4.4,2c1.7,0.4,3.4,0.8,5.1,0.9c0.9,0.1,1.8,0.2,2.7,0.4l90.1,0.1c4.7,0,8.6-3.9,8.6-8.6V60.4
			C166.4,55.7,162.5,51.9,157.8,51.9z"/>
		<path d="M110,27.4c0,0,5.7,4.9,5.5,6.7v37h4.1V32.4c0,0,1.5-3.4,3.1-3.6c0.3,0-0.7-3.7-0.7-3.7s-3,6.2-3.9,6.2l-0.9-4.4l-1.7-0.7
			l0.8,5.6c0,0-3.8-4.7-4.5-5.4S110,27.4,110,27.4z"/>
		<g>
			<path d="M74.2,66v-3.3h8.1v9.8c-1.1,0.4-2.3,0.6-3.4,0.8c-1.1,0.2-2.4,0.3-3.8,0.3c-3.7,0-6.4-0.8-8.2-2.5
				c-1.8-1.7-2.7-4.2-2.7-7.4c0-3.2,0.9-5.8,2.7-7.7c1.8-1.9,4.3-2.9,7.5-2.9c2.6,0,4.6,0.6,6,1.9c1.4,1.2,2.1,2.8,2.1,4.8h-4.4
				c0-1-0.3-1.9-1-2.5s-1.6-0.9-2.8-0.9c-1.8,0-3.2,0.6-4.2,1.9c-1,1.3-1.5,3.1-1.5,5.4c0,2.2,0.5,4,1.6,5.1
				c1.1,1.2,2.6,1.7,4.8,1.7c1.4,0,2.4-0.1,3.1-0.4v-4L74.2,66L74.2,66z"/>
			<path d="M83.6,63.3c0-1.4,0.5-2.4,1.5-3.2s2.4-1.1,4.3-1.1c1.8,0,3.2,0.4,4.3,1.2c1.1,0.8,1.6,2.2,1.6,4.1v5.6
				c0,1.2,0.1,2.2,0.3,3.2h-3.7c-0.1-0.4-0.1-1.1-0.1-1.8c-1,1.5-2.4,2.2-4,2.2c-1.7,0-2.9-0.4-3.7-1.1c-0.8-0.8-1.1-1.8-1.1-3.1
				c0-1.6,0.7-2.8,2-3.7c1.3-0.9,3.2-1.3,5.7-1.3h0.8c0-0.8-0.1-1.4-0.2-1.7c-0.3-0.8-0.9-1.2-1.8-1.2c-1.2,0-1.8,0.6-1.8,1.9
				C87.7,63.3,83.6,63.3,83.6,63.3z M91.5,66.6c0,0-0.3,0-0.8,0c-2.4,0-3.7,0.8-3.7,2.3c0,0.6,0.2,1,0.5,1.4
				c0.4,0.4,0.8,0.5,1.4,0.5s1.2-0.2,1.7-0.7C91.2,69.6,91.5,68.4,91.5,66.6z"/>
			<path d="M105.6,59.1v3.6c-0.3,0-0.6,0-0.8,0c-1.2,0-2.1,0.3-2.7,0.8s-0.8,1.4-0.8,2.7v7h-4.1V62.9c0-0.3,0-0.8,0-1.6
				c0-0.8-0.1-1.4-0.1-1.8h3.8l0.1,2.4c0.7-1.9,2.1-2.8,4.1-2.8C105.2,59.1,105.4,59.1,105.6,59.1z"/>
			<path d="M115.5,60.9V32.2h4.2v41h-4.1v-2c-0.4,0.8-1,1.4-1.7,1.7c-0.7,0.4-1.5,0.6-2.4,0.6c-2,0-3.4-0.6-4.5-1.8
				c-1-1.2-1.6-2.9-1.6-5.1s0.5-3.9,1.6-5.4c1.1-1.4,2.6-2.1,4.6-2.1C113.3,59.1,114.6,59.7,115.5,60.9z M114.7,63
				c-0.5-0.8-1.2-1.2-2.2-1.2c-2,0-3,1.5-3,4.6c0,1.5,0.2,2.6,0.7,3.3c0.5,0.7,1.2,1.1,2,1.1c1.1,0,1.9-0.5,2.4-1.4s0.8-2.1,0.8-3.5
				C115.5,64.7,115.2,63.7,114.7,63z"/>
			<path d="M124.6,67.3c0,2.3,0.9,3.5,2.8,3.5c1.3,0,2.2-0.7,2.5-2h3.7c-0.1,1.4-0.6,2.6-1.8,3.4c-1.1,0.9-2.6,1.3-4.4,1.3
				c-4.5,0-6.7-2.3-6.7-7c0-2.3,0.6-4.2,1.9-5.5c1.3-1.3,2.9-2,4.8-2c2.1,0,3.8,0.7,4.9,2c1.1,1.3,1.7,3.1,1.7,5.1c0,0.7,0,1,0,1
				h-9.4V67.3z M124.7,64.7h5.1c0-1.9-0.8-2.9-2.4-2.9C125.7,61.8,124.8,62.8,124.7,64.7z"/>
			<path d="M139,73.1h-4.1V61.6c0-0.4,0-1.1-0.1-2.1h3.9l0.1,2c1-1.6,2.5-2.4,4.5-2.4c1.4,0,2.5,0.4,3.4,1.2s1.3,2.1,1.3,3.9v8.9
				h-4.1v-8.8c0-0.7-0.2-1.3-0.6-1.7c-0.4-0.4-1-0.6-1.7-0.6c-1.8,0-2.7,1.1-2.7,3.2v7.9H139z"/>
			<path d="M152.8,69c0,0.6,0.2,1,0.6,1.4c0.4,0.4,1,0.6,1.8,0.6c0.7,0,1.2-0.1,1.6-0.4c0.4-0.3,0.6-0.7,0.6-1.2
				c0-0.4-0.2-0.7-0.5-1c-0.4-0.2-1-0.5-1.8-0.7l-2.1-0.5c-2.4-0.6-3.7-1.9-3.7-3.8c0-1.4,0.6-2.4,1.7-3.2c1.2-0.8,2.6-1.1,4.4-1.1
				c1.6,0,2.9,0.4,3.8,1.1c1,0.7,1.5,1.7,1.5,3h-3.8c-0.1-1.1-0.7-1.6-2-1.6c-0.5,0-1,0.1-1.3,0.4c-0.3,0.2-0.5,0.6-0.5,1
				c0,0.6,0.4,1,1.2,1.2l3.5,1c2.2,0.6,3.4,1.8,3.4,3.7c0,1.4-0.6,2.6-1.8,3.5c-1.2,0.8-2.8,1.3-4.7,1.3c-1.8,0-3.3-0.4-4.3-1.3
				c-1-0.8-1.5-1.9-1.5-3.2h3.9V69z"/>
		</g>
		<linearGradient id="SVGID_2_" gradientUnits="userSpaceOnUse" x1="66.1233" y1="11.9944" x2="156.8893" y2="25.5263">
			<stop  offset="0" style="stop-color:#FFFFFF"/>
			<stop  offset="7.940610e-02" style="stop-color:#D8EBED"/>
			<stop  offset="0.258" style="stop-color:#76B8C0"/>
			<stop  offset="0.46" style="stop-color:#007A8A"/>
			<stop  offset="0.9998" style="stop-color:#000000"/>
		</linearGradient>
		<path class="st15" d="M136.8,29.9c0,0,16.3,5.1,17.9-6.5c0.7-5.1-5.7-10.8-12.4-12.1s-11.6,5-11.6,5S129.1,3.1,121.3,2
			s-12.9,7-12.9,7s-1.5-5.1-9.8-6.9c-8.4-1.7-15.3,9.4-15.3,9.4S69.8,9.3,70.1,20c0.3,10.6,10,7.5,10,7.5s1.3,6.1,9.4,6.1
			s10.9-7.3,10.9-7.3s6.7,6.3,12-0.1c0,0,5,2.7,8.3,0.4c0,0,1.5,6.3,7.9,6.9C135.1,34,136.8,29.9,136.8,29.9z"/>
		<g>
			<path class="st16" d="M40.7,79.4"/>
			<path class="st16" d="M38.5,77.2"/>
		</g>
		<polyline class="st0" points="50.9,33.8 -21,34.6 -21,8.9 10.9,8.9 		"/>
	</g>
	<polygon class="st0" points="104.9,35.6 83.5,35.3 57.5,10.1 104.9,10.1 	"/>
	<polygon class="st0" points="116.1,33 82.7,32.7 56.6,12.1 116.1,12.1 	"/>
	<text transform="matrix(0.93 0 0 0.87 70.8347 53.1295)" class="st17 st18 st19">Fun</text>
	
		<use xlink:href="#ヒナギク"  width="47.4" height="47.4" x="-23.7" y="-23.7" transform="matrix(0.1929 -0.2381 -0.2013 -0.163 57.1173 58.7216)" style="overflow:visible;"/>
	
		<use xlink:href="#ガーベラ"  width="46.5" height="46.3" x="-23.3" y="-23.2" transform="matrix(0.2539 0 0 -0.2924 52.1261 67.9204)" style="overflow:visible;"/>
</g>
<g id="レイヤー_2">
</g>
</svg>
